<svg width="16" height="17" viewBox="0 0 16 17" fill="none" xmlns="http://www.w3.org/2000/svg">
<path fill-rule="evenodd" clip-rule="evenodd" d="M10.6133 0.711257L9.93212 1.9685C10.6164 2.32093 11.1634 2.81176 11.5727 3.44206C11.9821 4.07285 12.1869 4.76203 12.1869 5.51074H3.31205C3.31205 4.76186 3.51681 4.0727 3.92616 3.44206C4.33551 2.81176 4.88568 2.32093 5.57647 1.9685L4.89521 0.711257C4.85032 0.628022 4.86622 0.564398 4.94307 0.519315C5.02609 0.480788 5.09004 0.500225 5.13493 0.576759L5.82571 1.84405C6.4333 1.57523 7.07622 1.44053 7.75428 1.44053C8.43219 1.44053 9.07505 1.5752 9.68287 1.84405L10.3736 0.576759C10.4183 0.500225 10.4823 0.480615 10.5655 0.519315C10.6422 0.564196 10.6581 0.628022 10.6133 0.711257ZM5.72961 3.90782C5.83189 3.90782 5.91988 3.87105 5.99355 3.79718C6.06688 3.72365 6.10377 3.63579 6.10397 3.53329C6.10397 3.43097 6.06705 3.34329 5.99355 3.26941C5.91988 3.19588 5.83189 3.15911 5.72961 3.15911C5.62733 3.15911 5.54093 3.19588 5.47061 3.26941C5.40028 3.34311 5.36512 3.43097 5.36512 3.53329C5.36512 3.63596 5.40028 3.72365 5.47061 3.79718C5.54093 3.87105 5.62713 3.90782 5.72961 3.90782ZM10.0376 3.79718C9.9671 3.87105 9.8807 3.90782 9.77859 3.90782C9.67608 3.90782 9.58812 3.87105 9.5146 3.79718C9.44095 3.72365 9.4042 3.63596 9.4042 3.53329C9.4042 3.43097 9.44095 3.34311 9.5146 3.26941C9.58812 3.19588 9.67608 3.15911 9.77859 3.15911C9.88087 3.15911 9.96707 3.19588 10.0376 3.26941C10.108 3.34329 10.1431 3.43097 10.1431 3.53329C10.1431 3.63579 10.1079 3.72365 10.0376 3.79718ZM1.28733 5.96165C1.47918 5.76971 1.71258 5.67374 1.98767 5.67374C2.25637 5.67374 2.48674 5.76971 2.67863 5.96165C2.87051 6.1536 2.96644 6.38389 2.96644 6.65274V10.7802C2.96644 11.0558 2.87193 11.2891 2.68342 11.481C2.49453 11.673 2.26255 11.769 1.98767 11.769C1.71258 11.769 1.47918 11.673 1.28733 11.481C1.09544 11.2891 0.999512 11.0558 0.999512 10.7802V6.65274C0.999512 6.38392 1.09547 6.1536 1.28733 5.96165ZM3.35016 12.2488C3.35016 12.5435 3.45244 12.7929 3.65702 12.9976C3.86179 13.2023 4.11109 13.3046 4.4054 13.3046H5.11544L5.12517 15.4838C5.12517 15.7589 5.2211 15.9926 5.41296 16.1846C5.60481 16.3766 5.83521 16.4725 6.10374 16.4725C6.37865 16.4725 6.6122 16.3766 6.80408 16.1846C6.99597 15.9926 7.0919 15.759 7.0919 15.4838V13.3048H8.4159V15.4838C8.4159 15.7589 8.5118 15.9926 8.70369 16.1846C8.89558 16.3766 9.12892 16.4725 9.40403 16.4725C9.67894 16.4725 9.91249 16.3766 10.1044 16.1846C10.2963 15.9926 10.3922 15.759 10.3922 15.4838V13.3048H11.1118C11.3996 13.3048 11.6457 13.2024 11.8506 12.9978C12.0552 12.7931 12.1575 12.5437 12.1575 12.249V5.85595H3.35016V12.2488ZM12.8297 5.95689C13.0216 5.7683 13.2518 5.67374 13.5205 5.67374C13.7954 5.67374 14.029 5.7683 14.2208 5.95689C14.4127 6.14583 14.5086 6.37789 14.5086 6.65274V10.7802C14.5086 11.0558 14.4127 11.2891 14.2208 11.481C14.029 11.673 13.7954 11.769 13.5205 11.769C13.2519 11.769 13.0216 11.673 12.8297 11.481C12.6378 11.2891 12.5419 11.0558 12.5419 10.7802V6.65274C12.5419 6.37791 12.6378 6.14583 12.8297 5.95689Z" fill="#EFF1F2"/>
</svg>
