<svg width="16" height="17" viewBox="0 0 16 17" fill="none" xmlns="http://www.w3.org/2000/svg">
<path fill-rule="evenodd" clip-rule="evenodd" d="M10.6134 0.711257L9.93216 1.9685C10.6164 2.32093 11.1634 2.81176 11.5728 3.44206C11.9821 4.07285 12.1869 4.76203 12.1869 5.51074H3.3121C3.3121 4.76186 3.51686 4.0727 3.92621 3.44206C4.33556 2.81176 4.88573 2.32093 5.57651 1.9685L4.89525 0.711257C4.85036 0.628022 4.86627 0.564398 4.94312 0.519315C5.02614 0.480788 5.09008 0.500225 5.13497 0.576759L5.82576 1.84405C6.43335 1.57523 7.07627 1.44053 7.75432 1.44053C8.43223 1.44053 9.0751 1.5752 9.68291 1.84405L10.3737 0.576759C10.4184 0.500225 10.4823 0.480615 10.5655 0.519315C10.6422 0.564196 10.6581 0.628022 10.6134 0.711257ZM5.72966 3.90782C5.83194 3.90782 5.91993 3.87105 5.9936 3.79718C6.06692 3.72365 6.10382 3.63579 6.10402 3.53329C6.10402 3.43097 6.0671 3.34329 5.9936 3.26941C5.91993 3.19588 5.83194 3.15911 5.72966 3.15911C5.62738 3.15911 5.54097 3.19588 5.47065 3.26941C5.40033 3.34311 5.36517 3.43097 5.36517 3.53329C5.36517 3.63596 5.40033 3.72365 5.47065 3.79718C5.54097 3.87105 5.62717 3.90782 5.72966 3.90782ZM10.0376 3.79718C9.96715 3.87105 9.88075 3.90782 9.77864 3.90782C9.67613 3.90782 9.58817 3.87105 9.51464 3.79718C9.441 3.72365 9.40425 3.63596 9.40425 3.53329C9.40425 3.43097 9.441 3.34311 9.51464 3.26941C9.58817 3.19588 9.67613 3.15911 9.77864 3.15911C9.88092 3.15911 9.96712 3.19588 10.0376 3.26941C10.108 3.34329 10.1431 3.43097 10.1431 3.53329C10.1431 3.63579 10.108 3.72365 10.0376 3.79718ZM1.28737 5.96165C1.47923 5.76971 1.71263 5.67374 1.98771 5.67374C2.25642 5.67374 2.48679 5.76971 2.67867 5.96165C2.87056 6.1536 2.96649 6.38389 2.96649 6.65274V10.7802C2.96649 11.0558 2.87197 11.2891 2.68346 11.481C2.49458 11.673 2.2626 11.769 1.98771 11.769C1.71263 11.769 1.47923 11.673 1.28737 11.481C1.09549 11.2891 0.999557 11.0558 0.999557 10.7802V6.65274C0.999557 6.38392 1.09552 6.1536 1.28737 5.96165ZM3.3502 12.2488C3.3502 12.5435 3.45248 12.7929 3.65707 12.9976C3.86183 13.2023 4.11114 13.3046 4.40545 13.3046H5.11549L5.12522 15.4838C5.12522 15.7589 5.22114 15.9926 5.413 16.1846C5.60486 16.3766 5.83526 16.4725 6.10379 16.4725C6.3787 16.4725 6.61224 16.3766 6.80413 16.1846C6.99601 15.9926 7.09194 15.759 7.09194 15.4838V13.3048H8.41595V15.4838C8.41595 15.7589 8.51185 15.9926 8.70374 16.1846C8.89562 16.3766 9.12896 16.4725 9.40408 16.4725C9.67899 16.4725 9.91253 16.3766 10.1044 16.1846C10.2963 15.9926 10.3922 15.759 10.3922 15.4838V13.3048H11.1118C11.3996 13.3048 11.6457 13.2024 11.8507 12.9978C12.0552 12.7931 12.1576 12.5437 12.1576 12.249V5.85595H3.3502V12.2488ZM12.8297 5.95689C13.0216 5.7683 13.2518 5.67374 13.5206 5.67374C13.7955 5.67374 14.029 5.7683 14.2209 5.95689C14.4128 6.14583 14.5087 6.37789 14.5087 6.65274V10.7802C14.5087 11.0558 14.4128 11.2891 14.2209 11.481C14.029 11.673 13.7955 11.769 13.5206 11.769C13.252 11.769 13.0216 11.673 12.8297 11.481C12.6379 11.2891 12.542 11.0558 12.542 10.7802V6.65274C12.542 6.37791 12.6379 6.14583 12.8297 5.95689Z" fill="#1D2022"/>
</svg>
