<svg width="209" height="38" viewBox="0 0 209 38" fill="none" xmlns="http://www.w3.org/2000/svg">
<path d="M43.2158 18.3866C43.2158 12.8964 46.4756 7.4483 53.2881 7.4483C57.4257 7.4483 60.7274 9.45999 62.3154 13.6298L57.4674 15.5157C56.9242 13.504 55.3777 12.0792 53.2881 12.0792C49.7775 12.0792 48.3982 15.2642 48.3982 18.3866C48.3982 21.5716 49.7356 24.6101 53.2881 24.6101C55.336 24.6101 56.9242 23.2482 57.4674 21.2783L62.1065 23.0385C60.7274 26.9361 57.4674 29.241 53.33 29.241C46.5175 29.241 43.2158 23.9395 43.2158 18.3866Z" fill="white"/>
<path fill-rule="evenodd" clip-rule="evenodd" d="M74.5126 7.4483C68.0556 7.4483 63.8135 12.3937 63.8135 18.3028C63.8135 24.2328 68.0556 29.241 74.5126 29.241C80.9696 29.241 85.2117 24.2328 85.2117 18.3028C85.2117 12.3935 80.9696 7.4483 74.5126 7.4483ZM74.5125 11.8698C78.3786 11.8698 79.904 14.8663 79.904 18.3028C79.904 21.7392 78.3784 24.8406 74.5125 24.8406C70.6674 24.8406 69.1211 21.7392 69.1211 18.3028C69.1211 14.8663 70.6676 11.8698 74.5125 11.8698Z" fill="white"/>
<path d="M88.3539 8.56863L93.411 7.46967V10.3192C95.0828 8.26569 97.5277 7.44849 99.5755 7.44849C105.051 7.44849 107.14 11.8698 107.14 16.2493V28.8219H102.104V16.8988C102.104 14.1537 100.725 12.1631 98.1126 12.1631C95.2498 12.1631 93.4108 13.7136 93.4108 17.3597V28.8217H88.3538V8.56863H88.3539Z" fill="white"/>
<path d="M110.138 18.3866C110.138 12.8964 113.398 7.4483 120.21 7.4483C124.348 7.4483 127.65 9.45999 129.238 13.6298L124.39 15.5157C123.847 13.504 122.3 12.0792 120.21 12.0792C116.7 12.0792 115.321 15.2642 115.321 18.3866C115.321 21.5716 116.658 24.6101 120.21 24.6101C122.258 24.6101 123.847 23.2482 124.39 21.2783L129.029 23.0385C127.65 26.9361 124.39 29.241 120.252 29.241C113.44 29.241 110.138 23.9395 110.138 18.3866Z" fill="white"/>
<path fill-rule="evenodd" clip-rule="evenodd" d="M141.171 7.4483C134.107 7.4483 130.931 12.9803 130.931 18.4284C130.931 24.0652 134.316 29.241 141.505 29.2409C145.015 29.2409 147.795 28.0046 150.072 25.4691L146.562 22.3888C145.099 24.0232 143.427 24.6099 141.547 24.6099C138.266 24.6099 136.761 22.7661 136.322 20.021H150.658C150.762 19.7275 150.846 18.8685 150.846 18.0093C150.846 13.3365 148.484 7.4483 141.171 7.4483ZM141.129 11.7441C143.783 11.7441 145.496 13.3365 145.83 16.3331H136.322C136.803 13.7138 138.12 11.7441 141.129 11.7441Z" fill="white"/>
<path fill-rule="evenodd" clip-rule="evenodd" d="M159.391 7.46967L154.209 8.56863V38H159.391V26.7264C160.854 28.5287 163.153 29.241 165.347 29.241C171.114 29.241 174.291 24.1492 174.291 18.3448C174.291 12.5195 171.114 7.44849 165.263 7.44849C163.027 7.44849 160.854 8.18187 159.391 9.98391V7.46967ZM164.009 12.0372C167.52 12.0372 169.108 14.8243 169.108 18.3446C169.108 21.865 167.52 24.5263 164.009 24.5261C160.52 24.5261 158.932 21.865 158.932 18.3446C158.932 14.8241 160.52 12.0372 164.009 12.0372Z" fill="white"/>
<path d="M184.315 1.8316L179.341 2.89859V7.88823H175.893V12.1629H179.258V23.0382C179.258 26.8519 181.703 29.2407 185.819 29.2407C187.261 29.2407 188.807 28.9054 189.581 28.6121V23.9812C188.891 24.3165 187.742 24.7356 186.676 24.7356C185.338 24.7356 184.314 24.1488 184.314 22.1371V12.1629H189.58V7.88823H184.314V1.8316H184.315V1.8316Z" fill="white"/>
<path d="M198.072 13.6789C198.038 12.6946 199.033 11.8421 200.704 11.7835C202.682 11.7142 203.861 12.7202 204.631 13.8272L208.511 11.5804C206.804 9.07601 204.131 7.61687 200.73 7.73582C196.699 7.87688 193.055 10.1014 193.209 14.5199C193.466 21.9122 203.869 19.1787 203.992 22.6969C204.03 23.8068 203.055 25.2249 200.693 25.3076C197.916 25.4048 196.742 23.5171 196.125 22.029L192.137 23.9719C193.272 27.161 196.706 29.6826 201.091 29.5291C205.04 29.3908 209.163 27.1078 208.995 22.2702C208.728 14.5847 198.182 16.8412 198.072 13.6789Z" fill="white"/>
<path d="M34.9623 15.5254V7.38068C34.9623 3.32131 31.6502 0.000274658 27.6022 0.000274658H7.3601C3.3119 0.000274658 0 3.3216 0 7.38068V27.6787C0 31.7381 3.31219 35.0591 7.3601 35.0591H27.6022C31.6504 35.0591 34.9623 31.7378 34.9623 27.6787V19.516V15.5254Z" fill="url(#paint0_linear_1_550)"/>
<path d="M6.52261 17.5207C6.52261 15.1129 6.62957 12.73 6.83858 10.3765L0 9.76971V25.2718L6.83858 24.665C6.62985 22.3115 6.52261 19.9285 6.52261 17.5207Z" fill="#EA8423"/>
<path d="M19.5134 11.5014L6.83867 10.3765C6.62995 12.73 6.52271 15.1126 6.52271 17.5207C6.52271 19.9288 6.62966 22.3115 6.83867 24.665L19.5134 23.5401C19.3367 21.5573 19.2459 19.5496 19.2459 17.5207C19.2459 15.4919 19.3367 13.4842 19.5134 11.5014Z" fill="#E46625"/>
<path d="M32.2545 12.6317L19.5134 11.5011C19.3367 13.4839 19.2458 15.4916 19.2458 17.5205C19.2458 19.5493 19.3367 21.557 19.5134 23.5398L32.2545 22.4092C32.1103 20.7987 32.0356 19.1683 32.0356 17.5205C32.0356 15.8727 32.1103 14.2422 32.2545 12.6317Z" fill="#DE5326"/>
<path d="M32.0356 17.5208C32.0356 19.1688 32.1103 20.7993 32.2545 22.4095L34.9627 22.1693V12.8722L32.2545 12.632C32.1103 14.2422 32.0356 15.8727 32.0356 17.5208Z" fill="#DA4226"/>
<path d="M8.45672 0H7.36034C3.31214 0 0.000244141 3.32133 0.000244141 7.38041V9.76943L6.83882 10.3762C7.15191 6.84589 7.6988 3.3829 8.45672 0Z" fill="#E26F25"/>
<path d="M19.5133 11.5014C19.8644 7.5585 20.5621 3.71624 21.5662 0.000305176H8.45668C7.69876 3.38321 7.15187 6.84619 6.8385 10.3768L19.5133 11.5014Z" fill="#DD5826"/>
<path d="M32.2545 12.6317C32.5339 9.50983 33.0802 6.46516 33.8666 3.51935C32.567 1.41219 30.2416 0 27.6026 0H21.5664C20.5622 3.71593 19.8646 7.5582 19.5134 11.5011L32.2545 12.6317Z" fill="#DA4626"/>
<path d="M34.9626 12.8722V7.38069C34.9626 5.96763 34.5604 4.64477 33.8665 3.51935C33.0801 6.46544 32.534 9.50982 32.2544 12.6317L34.9626 12.8722Z" fill="#D53927"/>
<path d="M0 25.2717V27.6787C0 31.7381 3.31219 35.0591 7.3601 35.0591H8.46051C7.70057 31.6707 7.15224 28.2016 6.83829 24.6649L0 25.2717Z" fill="#F5A51C"/>
<path d="M6.83838 24.665C7.15233 28.2017 7.70037 31.6707 8.4606 35.0591H21.571C20.5643 31.3377 19.8651 27.4894 19.5134 23.5401L6.83838 24.665Z" fill="#EB7B23"/>
<path d="M19.5134 23.5401C19.8651 27.4893 20.5643 31.3377 21.571 35.0591H27.6026C30.2437 35.0591 32.571 33.6449 33.8701 31.5345C33.0819 28.5847 32.5344 25.5357 32.2548 22.4095L19.5134 23.5401Z" fill="#E46025"/>
<path d="M32.2544 22.4095C32.5343 25.5357 33.0815 28.5847 33.8697 31.5345C34.5616 30.4106 34.9626 29.0894 34.9626 27.6787V22.1693L32.2544 22.4095Z" fill="#DF4D26"/>
<path d="M4.302 13.706C4.34114 13.5754 4.38338 13.4452 4.42509 13.3151C4.38389 13.4458 4.34166 13.5754 4.302 13.706Z" fill="white"/>
<path d="M4.13281 14.2759C4.15805 14.1752 4.1874 14.0755 4.21419 13.9753C4.1874 14.0755 4.15805 14.1752 4.13281 14.2759Z" fill="white"/>
<path d="M3.96704 15.0118C3.98352 14.9261 3.99743 14.8393 4.01442 14.7536C3.99691 14.8393 3.98352 14.9261 3.96704 15.0118Z" fill="white"/>
<path d="M8.02045 13.6172C8.00603 13.6528 7.99367 13.689 7.97925 13.7246C7.99367 13.689 8.00603 13.6528 8.02045 13.6172Z" fill="white"/>
<path d="M3.77686 16.424C3.78922 16.2866 3.80364 16.1503 3.81857 16.0134C3.80364 16.1498 3.78922 16.2866 3.77686 16.424Z" fill="white"/>
<path d="M3.73267 17.0405C3.73833 16.9202 3.74709 16.7999 3.7543 16.6801C3.74709 16.8004 3.73782 16.9202 3.73267 17.0405Z" fill="white"/>
<path d="M3.85181 15.7683C3.86983 15.6377 3.88734 15.507 3.90743 15.3769C3.88734 15.507 3.87035 15.6377 3.85181 15.7683Z" fill="white"/>
<path d="M7.34068 16.2253C7.32574 16.3457 7.30926 16.466 7.29639 16.5869C7.30926 16.466 7.32574 16.3457 7.34068 16.2253Z" fill="white"/>
<path d="M7.85337 14.1173C7.82143 14.2092 7.79311 14.3022 7.76221 14.3946C7.79259 14.3022 7.82143 14.2092 7.85337 14.1173Z" fill="white"/>
<path d="M7.27583 16.7974C7.26862 16.9017 7.25832 17.005 7.25317 17.1099C7.25832 17.0056 7.26862 16.9017 7.27583 16.7974Z" fill="white"/>
<path d="M7.69109 14.6275C7.65865 14.7391 7.62877 14.8512 7.59839 14.9637C7.62877 14.8512 7.65865 14.7391 7.69109 14.6275Z" fill="white"/>
<path d="M7.54936 15.1482C7.52104 15.2685 7.49426 15.3888 7.46851 15.5097C7.49477 15.3888 7.52155 15.2685 7.54936 15.1482Z" fill="white"/>
<path d="M7.43227 15.6795C7.41012 15.8035 7.38798 15.9269 7.36841 16.0514C7.38746 15.9269 7.40961 15.8035 7.43227 15.6795Z" fill="white"/>
<path d="M7.44434 19.5814C7.46442 19.68 7.48863 19.7776 7.51026 19.8757C7.48863 19.7776 7.46442 19.68 7.44434 19.5814Z" fill="url(#paint1_linear_1_550)"/>
<path d="M3.8766 19.6284C3.87453 19.6134 3.87144 19.5989 3.86938 19.584C3.87093 19.5989 3.87402 19.6134 3.8766 19.6284Z" fill="url(#paint2_linear_1_550)"/>
<path d="M7.55908 20.0823C7.58329 20.1779 7.61161 20.2719 7.63737 20.3664C7.61161 20.2719 7.5838 20.1779 7.55908 20.0823Z" fill="url(#paint3_linear_1_550)"/>
<path d="M3.80627 19.1158C3.79493 19.0069 3.78566 18.8979 3.77588 18.7889C3.78618 18.8979 3.79493 19.0069 3.80627 19.1158Z" fill="url(#paint4_linear_1_550)"/>
<path d="M3.7502 18.4749C3.74402 18.3649 3.73681 18.2554 3.73218 18.1454C3.73681 18.2554 3.74351 18.3655 3.7502 18.4749Z" fill="url(#paint5_linear_1_550)"/>
<path d="M7.35425 19.0737C7.3697 19.1749 7.38927 19.2746 7.40627 19.3753C7.38927 19.2746 7.3697 19.1749 7.35425 19.0737Z" fill="url(#paint6_linear_1_550)"/>
<path d="M4.19333 21.1381C4.16552 21.0312 4.14028 20.9237 4.11401 20.8163C4.14028 20.9237 4.16552 21.0312 4.19333 21.1381Z" fill="url(#paint7_linear_1_550)"/>
<path d="M7.25122 18.0422C7.25586 18.1342 7.26564 18.2256 7.27131 18.3175C7.26513 18.2256 7.25534 18.1342 7.25122 18.0422Z" fill="url(#paint8_linear_1_550)"/>
<path d="M7.69897 20.5758C7.72782 20.6682 7.75975 20.7597 7.79013 20.8521C7.75923 20.7597 7.7273 20.6682 7.69897 20.5758Z" fill="url(#paint9_linear_1_550)"/>
<path d="M7.28979 18.5603C7.3001 18.6615 7.31503 18.7622 7.32688 18.8629C7.31503 18.7617 7.29958 18.6615 7.28979 18.5603Z" fill="url(#paint10_linear_1_550)"/>
<path d="M4.04381 20.5204C4.02064 20.4109 3.99695 20.3014 3.97583 20.1919C3.99695 20.3019 4.02064 20.4109 4.04381 20.5204Z" fill="url(#paint11_linear_1_550)"/>
<path fill-rule="evenodd" clip-rule="evenodd" d="M25.8587 25.211L26.7694 26.0436C26.7743 26.0382 26.7789 26.0327 26.7835 26.0272L26.7936 26.0153L27.6017 26.8256C27.4648 26.9753 27.325 27.1228 27.1811 27.267C25.9193 28.5321 24.4495 29.5257 22.8126 30.22C21.1169 30.9393 19.3165 31.3038 17.4616 31.3038C15.6068 31.3038 13.8067 30.9393 12.1109 30.22C10.474 29.5259 9.00429 28.5324 7.74243 27.267C6.48087 26.0017 5.49 24.5279 4.79753 22.8865C4.61677 22.4578 4.45878 22.0224 4.323 21.5812H8.06849C8.06517 21.5734 8.06215 21.5656 8.05912 21.5577C8.05609 21.5498 8.05307 21.5419 8.04975 21.5341C8.55628 22.7278 9.29027 23.8254 10.2324 24.7702C12.1634 26.7065 14.7309 27.7729 17.4619 27.7729C20.1932 27.7729 22.7607 26.7065 24.6917 24.7702C24.8361 24.6256 24.9748 24.477 25.1091 24.3255L25.9207 25.1393C25.9113 25.15 25.902 25.1608 25.8929 25.1717C25.8816 25.185 25.8703 25.1983 25.8587 25.211ZM5.87207 22.4739C5.95395 22.6673 6.04187 22.861 6.13297 23.0495L7.24175 22.5098C7.15929 22.3398 7.08001 22.1649 7.00621 21.9906L5.87207 22.4739ZM8.14293 26.0263C8.00224 25.8713 7.86357 25.7109 7.73096 25.5493L8.68232 24.7638C8.80196 24.9095 8.92708 25.0543 9.05393 25.194L8.14293 26.0263ZM10.3801 27.9698C10.5531 28.0874 10.7316 28.2025 10.91 28.3115L11.5509 27.2557C11.3894 27.1574 11.2286 27.0537 11.0723 26.9473L10.3801 27.9698ZM14.2064 29.7271C14.0044 29.6728 13.8008 29.6124 13.6013 29.5479L13.9801 28.3719C14.1603 28.4303 14.344 28.4847 14.5262 28.5338L14.2064 29.7271ZM17.1692 28.9192L17.1372 30.1544C17.3465 30.1599 17.5587 30.1599 17.768 30.1547L17.7377 28.9194C17.5489 28.9241 17.3578 28.9241 17.1692 28.9192ZM21.2895 29.5592C21.188 29.5916 21.0845 29.6234 20.9819 29.6531C20.8873 29.6806 20.7919 29.7075 20.6982 29.7324L20.3813 28.5381C20.4658 28.5156 20.552 28.4916 20.6374 28.4664C20.7302 28.4393 20.8236 28.4106 20.9153 28.3814L20.9297 28.3768L21.301 29.5551L21.2895 29.5592ZM23.3604 27.2702L23.9983 28.3274C24.1777 28.2187 24.3564 28.1039 24.5297 27.9866L23.8392 26.9629C23.6832 27.0687 23.5221 27.1722 23.3604 27.2702Z" fill="url(#paint12_linear_1_550)"/>
<path d="M7.86255 21.06C7.89603 21.1514 7.93259 21.2418 7.96761 21.3327C7.93208 21.2418 7.89603 21.1514 7.86255 21.06Z" fill="url(#paint13_linear_1_550)"/>
<path d="M10.3801 27.9698C10.5531 28.0875 10.7316 28.2025 10.91 28.3115L11.5506 27.2558C11.3894 27.1575 11.2283 27.0537 11.072 26.9473L10.3801 27.9698Z" fill="white"/>
<path d="M10.3801 27.9698C10.5531 28.0875 10.7316 28.2025 10.91 28.3115L11.5506 27.2558C11.3894 27.1575 11.2283 27.0537 11.072 26.9473L10.3801 27.9698Z" fill="url(#paint14_linear_1_550)"/>
<path d="M5.87207 22.4739C5.95395 22.6673 6.04187 22.8607 6.13297 23.0495L7.24175 22.5101C7.15929 22.3401 7.0803 22.1652 7.00621 21.9909L5.87207 22.4739Z" fill="white"/>
<path d="M5.87207 22.4739C5.95395 22.6673 6.04187 22.8607 6.13297 23.0495L7.24175 22.5101C7.15929 22.3401 7.0803 22.1652 7.00621 21.9909L5.87207 22.4739Z" fill="url(#paint15_linear_1_550)"/>
<path d="M7.73096 25.5493C7.86357 25.7109 8.00224 25.8713 8.14293 26.0263L9.05393 25.194C8.92708 25.0544 8.80196 24.9095 8.68232 24.7638L7.73096 25.5493Z" fill="white"/>
<path d="M7.73096 25.5493C7.86357 25.7109 8.00224 25.8713 8.14293 26.0263L9.05393 25.194C8.92708 25.0544 8.80196 24.9095 8.68232 24.7638L7.73096 25.5493Z" fill="url(#paint16_linear_1_550)"/>
<path d="M17.1692 28.9192L17.1372 30.1544C17.3465 30.1599 17.5587 30.1599 17.768 30.1547L17.7377 28.9194C17.5492 28.9241 17.3578 28.9241 17.1692 28.9192Z" fill="white"/>
<path d="M17.1692 28.9192L17.1372 30.1544C17.3465 30.1599 17.5587 30.1599 17.768 30.1547L17.7377 28.9194C17.5492 28.9241 17.3578 28.9241 17.1692 28.9192Z" fill="url(#paint17_linear_1_550)"/>
<path d="M13.6013 29.5479C13.8008 29.6127 14.0044 29.6728 14.2064 29.7272L14.5262 28.5338C14.344 28.4847 14.16 28.4303 13.9801 28.3719L13.6013 29.5479Z" fill="white"/>
<path d="M13.6013 29.5479C13.8008 29.6127 14.0044 29.6728 14.2064 29.7272L14.5262 28.5338C14.344 28.4847 14.16 28.4303 13.9801 28.3719L13.6013 29.5479Z" fill="url(#paint18_linear_1_550)"/>
<path opacity="0.48" d="M27.6772 22.5283L28.7843 23.0715C28.8763 22.8833 28.9648 22.6899 29.0472 22.4968L27.9145 22.0097C27.8401 22.1837 27.7603 22.3583 27.6772 22.5283Z" fill="white"/>
<path opacity="0.6" d="M27.1819 25.5666L26.2309 24.7806C26.1308 24.9023 26.0259 25.0217 25.9207 25.1396L26.7939 26.0153C26.9259 25.869 27.0568 25.7187 27.1819 25.5666Z" fill="white"/>
<path d="M26.7694 26.0436C26.7777 26.0344 26.7855 26.0245 26.7939 26.015L25.9206 25.1393C25.8996 25.1628 25.8797 25.1876 25.8586 25.211L26.7694 26.0436Z" fill="url(#paint19_linear_1_550)"/>
<path opacity="0.6" d="M26.7694 26.0436C26.7777 26.0344 26.7855 26.0245 26.7939 26.015L25.9206 25.1393C25.8996 25.1628 25.8797 25.1876 25.8586 25.211L26.7694 26.0436Z" fill="white"/>
<path d="M23.3601 27.2702L23.9981 28.3274C24.1774 28.2187 24.3562 28.1039 24.5294 27.9863L23.839 26.9626C23.6827 27.0687 23.5216 27.1719 23.3601 27.2702Z" fill="url(#paint20_linear_1_550)"/>
<path opacity="0.7" d="M23.3601 27.2702L23.9981 28.3274C24.1774 28.2187 24.3562 28.1039 24.5294 27.9863L23.839 26.9626C23.6827 27.0687 23.5216 27.1719 23.3601 27.2702Z" fill="white"/>
<path d="M20.9153 28.3817C20.8236 28.4109 20.7302 28.4396 20.6374 28.4667C20.552 28.4916 20.4658 28.5159 20.3813 28.5384L20.6982 29.7327C20.7919 29.7078 20.8873 29.6809 20.9819 29.6534C21.0845 29.6234 21.188 29.5919 21.2895 29.5595L21.301 29.5557L20.9297 28.3774L20.9153 28.3817Z" fill="url(#paint21_linear_1_550)"/>
<path opacity="0.85" d="M20.9153 28.3817C20.8236 28.4109 20.7302 28.4396 20.6374 28.4667C20.552 28.4916 20.4658 28.5159 20.3813 28.5384L20.6982 29.7327C20.7919 29.7078 20.8873 29.6809 20.9819 29.6534C21.0845 29.6234 21.188 29.5919 21.2895 29.5595L21.301 29.5557L20.9297 28.3774L20.9153 28.3817Z" fill="white"/>
<path fill-rule="evenodd" clip-rule="evenodd" d="M25.5828 6.03904V6.04164C26.8547 6.13762 27.8609 7.20377 27.8606 8.50351C27.8606 9.86627 26.755 10.9752 25.3957 10.9752C24.3019 10.9752 23.3739 10.2568 23.0525 9.26641H23.051C22.9103 8.89696 22.6705 8.70558 22.5716 8.63909C21.0347 7.74639 19.2853 7.26853 17.4616 7.26853C14.7306 7.26853 12.1631 8.33497 10.2321 10.2713C9.39376 11.1119 8.71944 12.0732 8.22416 13.1156C8.14574 13.2807 8.07165 13.4481 8.00217 13.6172C7.99798 13.6274 7.9941 13.6378 7.99021 13.6483C7.98661 13.658 7.98299 13.6677 7.97911 13.6773C7.92058 13.8227 7.86494 13.9693 7.81305 14.1173C7.80251 14.1476 7.79268 14.1782 7.78283 14.2087C7.77598 14.23 7.76912 14.2513 7.76202 14.2725C7.72282 14.3902 7.68505 14.5084 7.65017 14.6275C7.63539 14.6783 7.62157 14.7295 7.60778 14.7806C7.60461 14.7923 7.60145 14.804 7.59827 14.8157C7.56829 14.9262 7.53975 15.0369 7.51352 15.1485C7.49766 15.2155 7.48267 15.2832 7.46825 15.3508C7.4449 15.4601 7.42357 15.5697 7.40368 15.6798L7.40247 15.6866C7.39048 15.7537 7.37853 15.8206 7.36793 15.888C7.35005 16.0001 7.33506 16.1126 7.32094 16.2256C7.31846 16.2456 7.31591 16.2655 7.31336 16.2855C7.30729 16.3329 7.30122 16.3804 7.29614 16.428C7.28317 16.5506 7.27395 16.674 7.2653 16.7977C7.26374 16.8203 7.26197 16.8428 7.26019 16.8652C7.25738 16.901 7.25456 16.9368 7.25261 16.9726C7.2431 17.1545 7.23762 17.3372 7.23762 17.5207C7.23762 17.6953 7.24223 17.8691 7.25088 18.0422C7.25244 18.0731 7.25492 18.1038 7.25741 18.1345C7.25907 18.1551 7.26074 18.1757 7.26213 18.1963L7.26222 18.1979C7.26997 18.3188 7.27774 18.44 7.2898 18.5603C7.29324 18.5941 7.29761 18.6277 7.30197 18.6613C7.30493 18.6841 7.30788 18.7068 7.31056 18.7297C7.31211 18.7429 7.31365 18.7561 7.3152 18.7692C7.32714 18.8711 7.33906 18.9729 7.35438 19.0737C7.35969 19.1085 7.36588 19.143 7.37206 19.1775C7.37594 19.1991 7.37983 19.2208 7.3835 19.2425L7.38485 19.2506C7.40343 19.361 7.42209 19.4718 7.44433 19.5814C7.45127 19.6155 7.4591 19.6494 7.46693 19.6833C7.47177 19.7042 7.4766 19.7252 7.48123 19.7461C7.50602 19.8589 7.53081 19.9713 7.55935 20.0826C7.56757 20.1149 7.57663 20.1469 7.5857 20.179C7.5916 20.1998 7.5975 20.2207 7.60318 20.2416C7.63373 20.3535 7.66458 20.4651 7.69889 20.5758C7.70983 20.6111 7.72156 20.6459 7.73329 20.6808C7.73886 20.6973 7.74443 20.7139 7.74992 20.7305C7.78624 20.8409 7.82314 20.951 7.86293 21.06C7.87542 21.0941 7.88868 21.128 7.90194 21.1619C7.90857 21.1788 7.9152 21.1957 7.92174 21.2127C7.96296 21.3205 8.00534 21.428 8.05032 21.5341C8.05363 21.5419 8.05666 21.5498 8.05969 21.5577C8.06271 21.5656 8.06574 21.5735 8.06906 21.5813H4.32356H4.32328C4.2636 21.3876 4.20969 21.1924 4.15895 20.9964C4.14768 20.9531 4.13716 20.9096 4.12664 20.8661C4.12262 20.8495 4.11861 20.8329 4.11455 20.8163C4.0788 20.6701 4.04507 20.5232 4.01423 20.3758C4.01 20.3553 4.00571 20.335 4.00142 20.3146C3.99283 20.2738 3.98425 20.233 3.97617 20.1919C3.93812 19.9982 3.90352 19.8042 3.87383 19.6088C3.87325 19.6046 3.87253 19.6005 3.87181 19.5964C3.87109 19.5923 3.87037 19.5881 3.86979 19.584C3.83952 19.381 3.81502 19.1766 3.79368 18.972C3.78865 18.9238 3.78435 18.8753 3.78005 18.8268C3.77893 18.8142 3.77781 18.8016 3.77667 18.789C3.76284 18.6366 3.75159 18.4837 3.74265 18.3302C3.74169 18.313 3.74068 18.2959 3.73966 18.2787C3.73705 18.2345 3.73443 18.1901 3.73256 18.1457C3.72334 17.9382 3.71729 17.73 3.71729 17.521C3.71729 17.3071 3.72334 17.0943 3.73285 16.8821C3.73477 16.8374 3.73771 16.7927 3.74064 16.748C3.74213 16.7255 3.74361 16.7029 3.74496 16.6804C3.75361 16.5344 3.76399 16.3887 3.77725 16.2435C3.78446 16.1669 3.79224 16.0903 3.8006 16.0137C3.81559 15.8741 3.83318 15.735 3.85249 15.5963C3.85414 15.5844 3.85577 15.5724 3.85741 15.5605C3.86582 15.4993 3.87422 15.4381 3.88363 15.3771C3.90842 15.217 3.93696 15.0574 3.96752 14.8984C3.97143 14.878 3.97502 14.8576 3.97861 14.8371C3.98351 14.8093 3.98839 14.7816 3.99405 14.7539C4.03556 14.5492 4.08197 14.346 4.133 14.1436C4.14174 14.1087 4.15136 14.0741 4.16097 14.0395C4.1669 14.0181 4.17283 13.9968 4.17855 13.9754C4.21776 13.8276 4.2587 13.6805 4.30281 13.5339C4.32501 13.4608 4.34836 13.3879 4.37171 13.3151C4.38052 13.2875 4.38897 13.2599 4.39742 13.2324C4.41025 13.1905 4.42307 13.1486 4.43715 13.1069H4.44148C4.54958 12.7866 4.66548 12.4686 4.7978 12.155C5.48999 10.5135 6.48085 9.03977 7.74271 7.77443C9.00427 6.50938 10.4743 5.51579 12.1112 4.8214C13.8069 4.10215 15.607 3.73761 17.4619 3.73761C19.3168 3.73761 21.1172 4.10215 22.8129 4.8214C23.5034 5.11425 24.1621 5.46317 24.79 5.86067L24.7903 5.85749C24.7903 5.85749 25.0152 5.99914 25.5828 6.03904ZM24.4612 8.50322C24.4612 9.02011 24.8809 9.44073 25.3961 9.44073C25.9113 9.44073 26.331 9.02039 26.331 8.50322C26.331 7.98662 25.9113 7.56599 25.3961 7.56599C24.8809 7.56599 24.4612 7.98662 24.4612 8.50322Z" fill="white"/>
<path d="M20.9441 17.5207C20.9441 17.6589 21.0363 17.7763 21.1612 17.8159L23.4419 18.4209V16.6208L21.1612 17.2258C21.0363 17.2649 20.9441 17.3825 20.9441 17.5207Z" fill="white"/>
<path d="M27.2122 15.5717L27.2104 15.572L24.365 16.3774V17.1915V17.8497V18.6638L27.2104 19.4692L27.2122 19.4695C27.3286 19.4995 27.4509 19.5157 27.5766 19.5157H34.9753V15.5255H27.5766C27.4506 15.5255 27.3286 15.5416 27.2122 15.5717Z" fill="white"/>
<path d="M8.05032 21.5341C8.00534 21.4278 7.96325 21.3205 7.92174 21.2127C7.91367 21.1922 7.90588 21.1713 7.89781 21.1508H4.2019C4.24054 21.2948 4.27888 21.4387 4.32299 21.5813H4.32328C4.36738 21.7247 4.41784 21.8666 4.46656 22.0088H8.26682C8.191 21.8521 8.11835 21.6943 8.05032 21.5341Z" fill="white"/>
<defs>
<linearGradient id="paint0_linear_1_550" x1="-2.88292e-05" y1="35.0591" x2="34.9623" y2="35.0591" gradientUnits="userSpaceOnUse">
<stop stop-color="#EA8423"/>
<stop offset="1" stop-color="#DA4226"/>
</linearGradient>
<linearGradient id="paint1_linear_1_550" x1="-5.53432" y1="61.5651" x2="77.63" y2="61.5651" gradientUnits="userSpaceOnUse">
<stop stop-color="white"/>
<stop offset="0.2614" stop-color="white"/>
<stop offset="0.5237" stop-color="white" stop-opacity="0.6"/>
<stop offset="0.7314" stop-color="white" stop-opacity="0.1"/>
<stop offset="0.8979" stop-color="white" stop-opacity="0.01"/>
</linearGradient>
<linearGradient id="paint2_linear_1_550" x1="3.33758" y1="61.3241" x2="86.5019" y2="61.3241" gradientUnits="userSpaceOnUse">
<stop stop-color="white"/>
<stop offset="0.2614" stop-color="white"/>
<stop offset="0.5237" stop-color="white" stop-opacity="0.6"/>
<stop offset="0.7314" stop-color="white" stop-opacity="0.1"/>
<stop offset="0.8979" stop-color="white" stop-opacity="0.01"/>
</linearGradient>
<linearGradient id="paint3_linear_1_550" x1="-5.81908" y1="62.056" x2="77.3452" y2="62.056" gradientUnits="userSpaceOnUse">
<stop stop-color="white"/>
<stop offset="0.2614" stop-color="white"/>
<stop offset="0.5237" stop-color="white" stop-opacity="0.6"/>
<stop offset="0.7314" stop-color="white" stop-opacity="0.1"/>
<stop offset="0.8979" stop-color="white" stop-opacity="0.01"/>
</linearGradient>
<linearGradient id="paint4_linear_1_550" x1="3.5693" y1="60.8044" x2="86.7336" y2="60.8044" gradientUnits="userSpaceOnUse">
<stop stop-color="white"/>
<stop offset="0.2614" stop-color="white"/>
<stop offset="0.5237" stop-color="white" stop-opacity="0.6"/>
<stop offset="0.7314" stop-color="white" stop-opacity="0.1"/>
<stop offset="0.8979" stop-color="white" stop-opacity="0.01"/>
</linearGradient>
<linearGradient id="paint5_linear_1_550" x1="3.67817" y1="60.1634" x2="86.8425" y2="60.1634" gradientUnits="userSpaceOnUse">
<stop stop-color="white"/>
<stop offset="0.2614" stop-color="white"/>
<stop offset="0.5237" stop-color="white" stop-opacity="0.6"/>
<stop offset="0.7314" stop-color="white" stop-opacity="0.1"/>
<stop offset="0.8979" stop-color="white" stop-opacity="0.01"/>
</linearGradient>
<linearGradient id="paint6_linear_1_550" x1="-5.31123" y1="61.0645" x2="77.853" y2="61.0645" gradientUnits="userSpaceOnUse">
<stop stop-color="white"/>
<stop offset="0.2614" stop-color="white"/>
<stop offset="0.5237" stop-color="white" stop-opacity="0.6"/>
<stop offset="0.7314" stop-color="white" stop-opacity="0.1"/>
<stop offset="0.8979" stop-color="white" stop-opacity="0.01"/>
</linearGradient>
<linearGradient id="paint7_linear_1_550" x1="2.73" y1="62.8267" x2="85.8943" y2="62.8267" gradientUnits="userSpaceOnUse">
<stop stop-color="white"/>
<stop offset="0.2614" stop-color="white"/>
<stop offset="0.5237" stop-color="white" stop-opacity="0.6"/>
<stop offset="0.7314" stop-color="white" stop-opacity="0.1"/>
<stop offset="0.8979" stop-color="white" stop-opacity="0.01"/>
</linearGradient>
<linearGradient id="paint8_linear_1_550" x1="-5.05491" y1="60.0074" x2="78.1094" y2="60.0074" gradientUnits="userSpaceOnUse">
<stop stop-color="white"/>
<stop offset="0.2614" stop-color="white"/>
<stop offset="0.5237" stop-color="white" stop-opacity="0.6"/>
<stop offset="0.7314" stop-color="white" stop-opacity="0.1"/>
<stop offset="0.8979" stop-color="white" stop-opacity="0.01"/>
</linearGradient>
<linearGradient id="paint9_linear_1_550" x1="-6.16602" y1="62.5419" x2="76.9983" y2="62.5419" gradientUnits="userSpaceOnUse">
<stop stop-color="white"/>
<stop offset="0.2614" stop-color="white"/>
<stop offset="0.5237" stop-color="white" stop-opacity="0.6"/>
<stop offset="0.7314" stop-color="white" stop-opacity="0.1"/>
<stop offset="0.8979" stop-color="white" stop-opacity="0.01"/>
</linearGradient>
<linearGradient id="paint10_linear_1_550" x1="-5.15184" y1="60.5521" x2="78.0124" y2="60.5521" gradientUnits="userSpaceOnUse">
<stop stop-color="white"/>
<stop offset="0.2614" stop-color="white"/>
<stop offset="0.5237" stop-color="white" stop-opacity="0.6"/>
<stop offset="0.7314" stop-color="white" stop-opacity="0.1"/>
<stop offset="0.8979" stop-color="white" stop-opacity="0.01"/>
</linearGradient>
<linearGradient id="paint11_linear_1_550" x1="3.07363" y1="62.2089" x2="86.2379" y2="62.2089" gradientUnits="userSpaceOnUse">
<stop stop-color="white"/>
<stop offset="0.2614" stop-color="white"/>
<stop offset="0.5237" stop-color="white" stop-opacity="0.6"/>
<stop offset="0.7314" stop-color="white" stop-opacity="0.1"/>
<stop offset="0.8979" stop-color="white" stop-opacity="0.01"/>
</linearGradient>
<linearGradient id="paint12_linear_1_550" x1="3.71678" y1="31.4311" x2="27.6021" y2="31.4311" gradientUnits="userSpaceOnUse">
<stop stop-color="white"/>
<stop offset="0.2614" stop-color="white"/>
<stop offset="0.5237" stop-color="white" stop-opacity="0.6"/>
<stop offset="0.7314" stop-color="white" stop-opacity="0.1"/>
<stop offset="0.8979" stop-color="white" stop-opacity="0.01"/>
</linearGradient>
<linearGradient id="paint13_linear_1_550" x1="-6.57259" y1="63.0226" x2="76.5917" y2="63.0226" gradientUnits="userSpaceOnUse">
<stop stop-color="white"/>
<stop offset="0.2614" stop-color="white"/>
<stop offset="0.5237" stop-color="white" stop-opacity="0.6"/>
<stop offset="0.7314" stop-color="white" stop-opacity="0.1"/>
<stop offset="0.8979" stop-color="white" stop-opacity="0.01"/>
</linearGradient>
<linearGradient id="paint14_linear_1_550" x1="3.7166" y1="41.5489" x2="27.602" y2="41.5489" gradientUnits="userSpaceOnUse">
<stop stop-color="white"/>
<stop offset="0.2614" stop-color="white"/>
<stop offset="0.5237" stop-color="white" stop-opacity="0.6"/>
<stop offset="0.7314" stop-color="white" stop-opacity="0.1"/>
<stop offset="0.8979" stop-color="white" stop-opacity="0.01"/>
</linearGradient>
<linearGradient id="paint15_linear_1_550" x1="3.71686" y1="31.7508" x2="27.6022" y2="31.7508" gradientUnits="userSpaceOnUse">
<stop stop-color="white"/>
<stop offset="0.2614" stop-color="white"/>
<stop offset="0.5237" stop-color="white" stop-opacity="0.6"/>
<stop offset="0.7314" stop-color="white" stop-opacity="0.1"/>
<stop offset="0.8979" stop-color="white" stop-opacity="0.01"/>
</linearGradient>
<linearGradient id="paint16_linear_1_550" x1="3.71655" y1="36.7913" x2="27.6019" y2="36.7913" gradientUnits="userSpaceOnUse">
<stop stop-color="white"/>
<stop offset="0.2614" stop-color="white"/>
<stop offset="0.5237" stop-color="white" stop-opacity="0.6"/>
<stop offset="0.7314" stop-color="white" stop-opacity="0.1"/>
<stop offset="0.8979" stop-color="white" stop-opacity="0.01"/>
</linearGradient>
<linearGradient id="paint17_linear_1_550" x1="-4.21915" y1="53.0051" x2="33.7901" y2="53.0051" gradientUnits="userSpaceOnUse">
<stop stop-color="white"/>
<stop offset="0.2614" stop-color="white"/>
<stop offset="0.5237" stop-color="white" stop-opacity="0.6"/>
<stop offset="0.7314" stop-color="white" stop-opacity="0.1"/>
<stop offset="0.8979" stop-color="white" stop-opacity="0.01"/>
</linearGradient>
<linearGradient id="paint18_linear_1_550" x1="2.87303" y1="46.5501" x2="28.7971" y2="46.5501" gradientUnits="userSpaceOnUse">
<stop stop-color="white"/>
<stop offset="0.2614" stop-color="white"/>
<stop offset="0.5237" stop-color="white" stop-opacity="0.6"/>
<stop offset="0.7314" stop-color="white" stop-opacity="0.1"/>
<stop offset="0.8979" stop-color="white" stop-opacity="0.01"/>
</linearGradient>
<linearGradient id="paint19_linear_1_550" x1="2.09353" y1="38.4962" x2="27.7299" y2="38.4962" gradientUnits="userSpaceOnUse">
<stop stop-color="white"/>
<stop offset="0.2614" stop-color="white"/>
<stop offset="0.5237" stop-color="white" stop-opacity="0.6"/>
<stop offset="0.7314" stop-color="white" stop-opacity="0.1"/>
<stop offset="0.8979" stop-color="white" stop-opacity="0.01"/>
</linearGradient>
<linearGradient id="paint20_linear_1_550" x1="3.71651" y1="41.5841" x2="27.6019" y2="41.5841" gradientUnits="userSpaceOnUse">
<stop stop-color="white"/>
<stop offset="0.2614" stop-color="white"/>
<stop offset="0.5237" stop-color="white" stop-opacity="0.6"/>
<stop offset="0.7314" stop-color="white" stop-opacity="0.1"/>
<stop offset="0.8979" stop-color="white" stop-opacity="0.01"/>
</linearGradient>
<linearGradient id="paint21_linear_1_550" x1="2.19225" y1="46.6543" x2="28.2626" y2="46.6543" gradientUnits="userSpaceOnUse">
<stop stop-color="white"/>
<stop offset="0.2614" stop-color="white"/>
<stop offset="0.5237" stop-color="white" stop-opacity="0.6"/>
<stop offset="0.7314" stop-color="white" stop-opacity="0.1"/>
<stop offset="0.8979" stop-color="white" stop-opacity="0.01"/>
</linearGradient>
</defs>
</svg>
