<svg width="16" height="17" viewBox="0 0 16 17" fill="none" xmlns="http://www.w3.org/2000/svg">
<path fill-rule="evenodd" clip-rule="evenodd" d="M10.0096 4.11191C11.4223 5.79618 11.2027 8.30723 9.51912 9.72053C7.83559 11.1337 5.32564 10.9141 3.913 9.22983C2.50035 7.54554 2.71994 5.03449 4.40347 3.62122C6.087 2.20795 8.59693 2.42764 10.0096 4.11191ZM11.8414 10.1271C13.3755 7.96181 13.3253 4.95469 11.5402 2.82634C9.41782 0.295915 5.64693 -0.0341446 3.11763 2.08913C0.588324 4.21241 0.25841 7.98497 2.38075 10.5154C4.17464 12.6542 7.14634 13.221 9.55056 12.063L12.6634 15.7744C13.1957 16.409 14.1413 16.4918 14.7758 15.9593C15.4101 15.4268 15.4927 14.4807 14.9605 13.846L11.8414 10.1271Z" fill="#EFF1F2"/>
</svg>
