<svg width="15" height="16" viewBox="0 0 15 16" fill="none" xmlns="http://www.w3.org/2000/svg">
<path fill-rule="evenodd" clip-rule="evenodd" d="M9.69832 3.61191C11.111 5.29618 10.8914 7.80723 9.20784 9.22053C7.52431 10.6337 5.01436 10.4141 3.60172 8.72983C2.18907 7.04554 2.40866 4.53449 4.09219 3.12122C5.77572 1.70795 8.28565 1.92764 9.69832 3.61191ZM11.5301 9.62713C13.0642 7.46181 13.014 4.45469 11.2289 2.32634C9.10654 -0.204085 5.33565 -0.534145 2.80635 1.58913C0.277045 3.71241 -0.0528698 7.48497 2.06947 10.0154C3.86336 12.1542 6.83506 12.721 9.23929 11.563L12.3521 15.2744C12.8844 15.909 13.8301 15.9918 14.4645 15.4593C15.0988 14.9268 15.1815 13.9807 14.6492 13.346L11.5301 9.62713Z" fill="#1D2022"/>
</svg>
