<svg width="28" height="28" viewBox="0 0 28 28" fill="none" xmlns="http://www.w3.org/2000/svg">
<circle cx="14" cy="14" r="14" fill="white"/>
<path fill-rule="evenodd" clip-rule="evenodd" d="M3.92794 11.5345C3.37084 11.737 3 12.2665 3 12.8593C3 13.8375 3.97206 14.5184 4.89144 14.1841L13.3165 11.1204C13.758 10.9599 14.242 10.9599 14.6835 11.1204L23.1086 14.1841C24.0279 14.5184 25 13.8375 25 12.8593C25 12.2665 24.6292 11.737 24.0721 11.5345L14.6835 8.12043C14.242 7.95988 13.758 7.95988 13.3165 8.12043L3.92794 11.5345ZM3.92794 17.5345C3.37084 17.737 3 18.2665 3 18.8593C3 19.8375 3.97206 20.5184 4.89144 20.1841L13.3165 17.1204C13.758 16.9599 14.242 16.9599 14.6835 17.1204L23.1086 20.1841C24.0279 20.5184 25 19.8375 25 18.8593C25 18.2665 24.6292 17.737 24.0721 17.5345L14.6835 14.1204C14.242 13.9599 13.758 13.9599 13.3165 14.1204L3.92794 17.5345Z" fill="#E0D0FF"/>
</svg>
